<?xml version="1.0" encoding="UTF-8"?>
<svg id="Capa_2" data-name="Capa 2" xmlns="http://www.w3.org/2000/svg" viewBox="0 0 400 400">
  <defs>
    <style>
      .cls-1 {
        fill: #eff9ed;
      }

      .cls-1, .cls-2 {
        stroke-width: 0px;
      }

      .cls-2 {
        fill: #4e958f;
      }
    </style>
  </defs>
  <g id="Capa_1-2" data-name="Capa 1">
    <rect class="cls-2" width="400" height="400" rx="51" ry="51"/>
    <path class="cls-1" d="m350,57.14v5.14c-6.33,0-11.62,4.15-15.88,12.45-4.46,8.51-6.69,18.63-6.69,30.36v181.67h-21.02l-118.94-193.51,5.14,162.53c1.56,25.84-4.2,47.01-17.28,63.52-12.98,16.81-32.33,25.22-58.07,25.22-18.06,0-33.37-6.28-45.92-18.84-12.35-12.35-18.53-27.04-18.53-44.06,0-18.99,5.45-34.09,16.35-45.3,10.38-11,22.36-16.5,35.96-16.5,12.35,0,22.88,3.74,31.6,11.21,8.3,7.37,12.45,16.92,12.45,28.64,0,12.56-3.32,22.32-9.96,29.27-6.64,7.26-15.31,10.9-26,10.9-6.33,0-11.68-1.71-16.03-5.14-4.78-3.11-7.32-6.8-7.63-11.05,2.8-.62,5.34-2.23,7.63-4.83,2.18-2.18,3.27-5.03,3.27-8.56,0-3.84-1.61-7.06-4.83-9.65-3.74-2.59-7.47-3.89-11.21-3.89-5.6,0-10.48,2.23-14.63,6.69-4.26,4.57-6.38,10.64-6.38,18.21,0,13.08,5.29,24.91,15.88,35.49,10.38,10.38,23.04,15.57,37.99,15.57,19.2,0,33.26-6.07,42.19-18.21,8.92-11.94,14.01-29.37,15.26-52.31v-1.25l4.83-156.92c.31-12.97-4.15-22.83-13.39-29.58-9.55-6.74-22.21-10.27-37.99-10.59-19.51-.62-33.99,4.1-43.43,14.17-9.13,9.76-14.01,22.06-14.63,36.9-.31,13.39,3.22,24.86,10.59,34.4,7.37,9.55,16.71,14.48,28.02,14.79,6.54.31,11.93-1.5,16.19-5.45,3.94-3.32,6.07-7.57,6.38-12.77.31-3.84-.62-7.16-2.8-9.96-1.97-2.59-4.72-4.05-8.25-4.36-2.91-.31-5.5.52-7.78,2.49-2.08,2.08-3.63,4.31-4.67,6.69-3.74-.62-6.95-2.96-9.65-7.01-3.01-4.46-4.36-9.24-4.05-14.32.31-9.13,3.79-16.71,10.43-22.73,6.43-5.81,15.15-8.56,26.15-8.25,10.48.31,18.89,4.26,25.22,11.83,6.23,7.78,9.18,17.33,8.87,28.64-.31,11.62-5.6,22.06-15.88,31.29-10.48,9.34-23.97,13.7-40.48,13.08-15.26-.31-28.85-6.28-40.79-17.9-12.04-11.42-17.9-25.11-17.59-41.1.31-16.6,7.63-30.82,21.95-42.66,14.11-11.62,32.95-16.97,56.51-16.03l62.43,1.56h43.12l81.89,133.41v-85.47c0-11.52-2.13-21.64-6.38-30.36-4.57-8.3-9.96-12.45-16.19-12.45v-5.14h56.67Z"/>
  </g>
</svg>