<?xml version="1.0" encoding="UTF-8"?>
<svg id="Capa_2" data-name="Capa 2" xmlns="http://www.w3.org/2000/svg" viewBox="0 0 200 192.69">
  <defs>
    <style>
      .cls-1 {
        fill: #eff9ed;
        stroke-width: 0px;
      }
    </style>
  </defs>
  <g id="Capa_1-2" data-name="Capa 1">
    <path class="cls-1" d="m200,1.11v3.42c-4.22,0-7.75,2.77-10.59,8.3-2.98,5.67-4.46,12.42-4.46,20.24v121.12h-14.01L91.65,25.19l3.42,108.35c1.04,17.23-2.8,31.34-11.52,42.34-8.65,11.21-21.55,16.81-38.71,16.81-12.04,0-22.25-4.19-30.62-12.56-8.23-8.23-12.35-18.02-12.35-29.37,0-12.66,3.63-22.73,10.9-30.2,6.92-7.33,14.91-11,23.97-11,8.23,0,15.26,2.49,21.07,7.47,5.53,4.91,8.3,11.28,8.3,19.1,0,8.37-2.22,14.88-6.64,19.51-4.43,4.84-10.21,7.26-17.33,7.26-4.22,0-7.78-1.14-10.69-3.42-3.18-2.08-4.88-4.53-5.09-7.37,1.87-.42,3.56-1.49,5.09-3.22,1.45-1.45,2.18-3.35,2.18-5.71,0-2.56-1.07-4.7-3.22-6.43-2.49-1.73-4.98-2.59-7.47-2.59-3.74,0-6.99,1.49-9.76,4.46-2.84,3.05-4.26,7.09-4.26,12.14,0,8.72,3.53,16.61,10.59,23.66,6.92,6.92,15.36,10.38,25.32,10.38,12.8,0,22.17-4.05,28.13-12.14,5.95-7.96,9.34-19.58,10.17-34.87v-.83l3.22-104.61c.21-8.65-2.77-15.22-8.93-19.72-6.37-4.5-14.81-6.85-25.32-7.06-13.01-.42-22.66,2.73-28.96,9.44-6.09,6.5-9.34,14.7-9.76,24.6-.21,8.93,2.14,16.57,7.06,22.94,4.91,6.37,11.14,9.65,18.68,9.86,4.36.21,7.96-1,10.79-3.63,2.63-2.21,4.05-5.05,4.26-8.51.21-2.56-.42-4.77-1.87-6.64-1.32-1.73-3.15-2.7-5.5-2.91-1.94-.21-3.67.35-5.19,1.66-1.39,1.38-2.42,2.87-3.11,4.46-2.49-.42-4.64-1.97-6.43-4.67-2.01-2.97-2.91-6.16-2.7-9.55.21-6.09,2.52-11.14,6.95-15.15,4.29-3.87,10.1-5.71,17.44-5.5,6.99.21,12.59,2.84,16.81,7.89,4.15,5.19,6.12,11.56,5.92,19.1-.21,7.75-3.74,14.7-10.59,20.86-6.99,6.23-15.98,9.13-26.98,8.72-10.17-.21-19.24-4.19-27.19-11.94C3.71,58.98-.2,49.85,0,39.2c.21-11.07,5.09-20.55,14.63-28.44C24.05,3.01,36.61-.55,52.32.07l41.62,1.04h28.75l54.59,88.94v-56.98c0-7.68-1.42-14.43-4.26-20.24-3.05-5.53-6.64-8.3-10.79-8.3V1.11h37.78Z"/>
  </g>
</svg>